<svg xmlns="http://www.w3.org/2000/svg" viewBox="0 0 256 256">
  <defs>
    <linearGradient id="rock" x1="0" y1="0" x2="0" y2="1">
      <stop offset="0" stop-color="#d7c3a5"/>
      <stop offset="1" stop-color="#9c7a55"/>
    </linearGradient>
    <linearGradient id="shade" x1="0" y1="0" x2="1" y2="1">
      <stop offset="0" stop-color="#7b5a3b" stop-opacity="0.9"/>
      <stop offset="1" stop-color="#4b3626" stop-opacity="0.9"/>
    </linearGradient>
  </defs>

  <!-- Ground -->
  <ellipse cx="128" cy="210" rx="95" ry="20" fill="#c6b091" opacity="0.6"/>

  <!-- Back mountain -->
  <path d="M36 208 L98 98 L160 208 Z" fill="url(#rock)" stroke="#3a2a20" stroke-width="4"/>
  <path d="M98 98 L72 144 L54 184 L98 184 Z" fill="url(#shade)" opacity="0.6"/>

  <!-- Main mountain -->
  <path d="M64 212 L128 60 L200 212 Z" fill="url(#rock)" stroke="#3a2a20" stroke-width="5"/>
  <path d="M128 60 L104 116 L84 164 L74 188 L128 188 Z" fill="url(#shade)" opacity="0.7"/>

  <!-- Right mountain -->
  <path d="M120 212 L178 112 L236 212 Z" fill="url(#rock)" stroke="#3a2a20" stroke-width="4"/>
  <path d="M178 112 L158 154 L144 186 L178 186 Z" fill="url(#shade)" opacity="0.6"/>

  <!-- Snow caps -->
  <path d="M118 86 L128 68 L140 86 L128 92 Z" fill="#f6f1e8" stroke="#3a2a20" stroke-width="2"/>
  <path d="M88 118 L98 104 L108 118 L98 122 Z" fill="#f6f1e8" stroke="#3a2a20" stroke-width="2"/>
  <path d="M168 130 L178 116 L188 130 L178 134 Z" fill="#f6f1e8" stroke="#3a2a20" stroke-width="2"/>

  <!-- Simple tree silhouettes -->
  <g fill="#3b3a2f">
    <path d="M46 206 L52 194 L58 206 Z"/>
    <path d="M62 206 L68 192 L74 206 Z"/>
    <path d="M178 206 L184 194 L190 206 Z"/>
    <path d="M194 206 L200 192 L206 206 Z"/>
  </g>
</svg>
